<svg width="40" height="40" viewBox="0 0 40 40" fill="none" xmlns="http://www.w3.org/2000/svg">
<rect width="40" height="40" rx="20" fill="#FFCCD7"/>
<rect width="24" height="24" transform="translate(8 8)" fill="#FFCCD7"/>
<path d="M23 10.4578C22.053 10.1604 21.0452 10 20 10C14.4772 10 10 14.4772 10 20C10 25.5228 14.4772 30 20 30C25.5228 30 30 25.5228 30 20C30 18.2847 29.5681 16.6702 28.8071 15.2594M25 13.75H25.005M18.5001 29.8883L18.5002 27.6849C18.5002 27.5656 18.5429 27.4502 18.6205 27.3596L21.1063 24.4594C21.3106 24.2211 21.2473 23.8556 20.9748 23.6999L18.1185 22.0677C18.0409 22.0234 17.9766 21.9591 17.9323 21.8814L16.0705 18.6186C15.9736 18.4488 15.7866 18.3511 15.5918 18.3684L10.0642 18.8607M29 14C29 16.2091 27 18 25 20C23 18 21 16.2091 21 14C21 11.7909 22.7909 10 25 10C27.2091 10 29 11.7909 29 14ZM25.25 13.75C25.25 13.8881 25.1381 14 25 14C24.8619 14 24.75 13.8881 24.75 13.75C24.75 13.6119 24.8619 13.5 25 13.5C25.1381 13.5 25.25 13.6119 25.25 13.75Z" stroke="#A6223D" strokeWidth="2" strokeLinecap="round" strokeLinejoin="round"/>
</svg>
